<mxfile host="app.diagrams.net" modified="2023-02-17T12:40:29.800Z" agent="5.0 (Windows NT 10.0; Win64; x64) AppleWebKit/537.36 (KHTML, like Gecko) Chrome/110.0.0.0 Safari/537.36 Edg/110.0.1587.41" etag="Ez0TqxJbmACP3kfQFg72" version="20.8.20" type="github">
  <diagram id="i_cl4AShtwmAQDiyPVz0" name="Page-1">
    <mxGraphModel dx="2474" dy="2064" grid="1" gridSize="10" guides="1" tooltips="1" connect="1" arrows="1" fold="1" page="1" pageScale="1" pageWidth="827" pageHeight="1169" background="#ffffff" math="0" shadow="0">
      <root>
        <mxCell id="0" />
        <mxCell id="1" parent="0" />
        <mxCell id="zKjUSq3xo2_UQNt89BO3-190" value="" style="rounded=0;whiteSpace=wrap;html=1;dashed=1;dashPattern=12 12;strokeColor=default;fillColor=none;" parent="1" vertex="1">
          <mxGeometry x="-70" y="-830" width="1130" height="610" as="geometry" />
        </mxCell>
        <mxCell id="zKjUSq3xo2_UQNt89BO3-168" value="" style="rounded=0;whiteSpace=wrap;html=1;fillColor=#f9f7ed;strokeColor=none;" parent="1" vertex="1">
          <mxGeometry x="557.05" y="-520.1764790394839" width="240" height="120" as="geometry" />
        </mxCell>
        <mxCell id="zKjUSq3xo2_UQNt89BO3-169" value="" style="rounded=1;whiteSpace=wrap;html=1;strokeColor=none;fillColor=#E6E6E6;" parent="1" vertex="1">
          <mxGeometry x="584.05" y="-514.1764790394839" width="51.95" height="110" as="geometry" />
        </mxCell>
        <mxCell id="zKjUSq3xo2_UQNt89BO3-170" value="" style="rounded=1;whiteSpace=wrap;html=1;strokeColor=none;strokeWidth=0;fillColor=#E6E6E6;" parent="1" vertex="1">
          <mxGeometry x="720.0699999999999" y="-514.1764790394839" width="46.98" height="110" as="geometry" />
        </mxCell>
        <mxCell id="zKjUSq3xo2_UQNt89BO3-171" value="" style="verticalLabelPosition=bottom;html=1;verticalAlign=top;align=center;strokeColor=none;fillColor=#00BEF2;shape=mxgraph.azure.virtual_machine;" parent="1" vertex="1">
          <mxGeometry x="657.0538926174497" y="-505.6664790394839" width="46.97986577181208" height="40" as="geometry" />
        </mxCell>
        <mxCell id="zKjUSq3xo2_UQNt89BO3-172" value="" style="aspect=fixed;html=1;points=[];align=center;image;fontSize=12;image=img/lib/azure2/networking/Network_Interfaces.svg;strokeColor=none;" parent="1" vertex="1">
          <mxGeometry x="730.4057046979865" y="-488.8864790394839" width="26.308724832214764" height="23.21744966442953" as="geometry" />
        </mxCell>
        <mxCell id="zKjUSq3xo2_UQNt89BO3-173" value="" style="aspect=fixed;html=1;points=[];align=center;image;fontSize=12;image=img/lib/azure2/networking/Route_Tables.svg;" parent="1" vertex="1">
          <mxGeometry x="730.4100000000001" y="-444.55647903948386" width="20" height="19.38" as="geometry" />
        </mxCell>
        <mxCell id="zKjUSq3xo2_UQNt89BO3-174" value="" style="rounded=1;whiteSpace=wrap;html=1;strokeColor=default;strokeWidth=0;fillColor=#E6E6E6;" parent="1" vertex="1">
          <mxGeometry x="655.63" y="-459.17647903948387" width="50" height="45" as="geometry" />
        </mxCell>
        <mxCell id="zKjUSq3xo2_UQNt89BO3-175" value="" style="aspect=fixed;html=1;points=[];align=center;image;fontSize=12;image=img/lib/azure2/networking/Network_Interfaces.svg;" parent="1" vertex="1">
          <mxGeometry x="674.56" y="-442.82647903948384" width="20" height="17.65" as="geometry" />
        </mxCell>
        <mxCell id="zKjUSq3xo2_UQNt89BO3-176" value="" style="aspect=fixed;html=1;points=[];align=center;image;fontSize=12;image=img/lib/azure2/networking/Network_Interfaces.svg;" parent="1" vertex="1">
          <mxGeometry x="600.74" y="-488.8864790394839" width="26.308724832214764" height="23.21744966442953" as="geometry" />
        </mxCell>
        <mxCell id="zKjUSq3xo2_UQNt89BO3-177" value="" style="endArrow=none;html=1;rounded=0;shadow=0;strokeColor=#000000;strokeWidth=1;fillColor=#FF0000;entryX=0;entryY=0.712;entryDx=0;entryDy=0;entryPerimeter=0;" parent="1" source="zKjUSq3xo2_UQNt89BO3-176" target="zKjUSq3xo2_UQNt89BO3-171" edge="1">
          <mxGeometry width="50" height="50" relative="1" as="geometry">
            <mxPoint x="687.05" y="-584.1764790394839" as="sourcePoint" />
            <mxPoint x="737.05" y="-634.1764790394839" as="targetPoint" />
          </mxGeometry>
        </mxCell>
        <mxCell id="zKjUSq3xo2_UQNt89BO3-178" value="&lt;div&gt;172.28.49.36&lt;/div&gt;" style="text;html=1;align=center;verticalAlign=middle;resizable=0;points=[];autosize=1;strokeColor=none;fillColor=none;fontStyle=1;fontSize=13;" parent="1" vertex="1">
          <mxGeometry x="484.56" y="-448.13647903948385" width="100" height="30" as="geometry" />
        </mxCell>
        <mxCell id="zKjUSq3xo2_UQNt89BO3-179" value="" style="aspect=fixed;html=1;points=[];align=center;image;fontSize=12;image=img/lib/azure2/networking/Route_Tables.svg;" parent="1" vertex="1">
          <mxGeometry x="601.56" y="-442.82647903948384" width="20" height="19.38" as="geometry" />
        </mxCell>
        <mxCell id="zKjUSq3xo2_UQNt89BO3-155" value="" style="rounded=0;whiteSpace=wrap;html=1;fillColor=#f9f7ed;strokeColor=none;" parent="1" vertex="1">
          <mxGeometry x="348.05" y="-788.1764790394839" width="240" height="120" as="geometry" />
        </mxCell>
        <mxCell id="zKjUSq3xo2_UQNt89BO3-156" value="" style="rounded=1;whiteSpace=wrap;html=1;strokeColor=none;fillColor=#E6E6E6;" parent="1" vertex="1">
          <mxGeometry x="375.05" y="-782.1764790394839" width="51.95" height="110" as="geometry" />
        </mxCell>
        <mxCell id="zKjUSq3xo2_UQNt89BO3-157" value="" style="rounded=1;whiteSpace=wrap;html=1;strokeColor=none;strokeWidth=0;fillColor=#E6E6E6;" parent="1" vertex="1">
          <mxGeometry x="511.06999999999994" y="-782.1764790394839" width="46.98" height="110" as="geometry" />
        </mxCell>
        <mxCell id="zKjUSq3xo2_UQNt89BO3-158" value="" style="verticalLabelPosition=bottom;html=1;verticalAlign=top;align=center;strokeColor=none;fillColor=#00BEF2;shape=mxgraph.azure.virtual_machine;" parent="1" vertex="1">
          <mxGeometry x="448.0538926174497" y="-773.6664790394839" width="46.97986577181208" height="40" as="geometry" />
        </mxCell>
        <mxCell id="zKjUSq3xo2_UQNt89BO3-159" value="" style="aspect=fixed;html=1;points=[];align=center;image;fontSize=12;image=img/lib/azure2/networking/Network_Interfaces.svg;strokeColor=none;" parent="1" vertex="1">
          <mxGeometry x="521.4057046979866" y="-756.8864790394839" width="26.308724832214764" height="23.21744966442953" as="geometry" />
        </mxCell>
        <mxCell id="zKjUSq3xo2_UQNt89BO3-160" value="" style="aspect=fixed;html=1;points=[];align=center;image;fontSize=12;image=img/lib/azure2/networking/Route_Tables.svg;" parent="1" vertex="1">
          <mxGeometry x="521.41" y="-712.5564790394839" width="20" height="19.38" as="geometry" />
        </mxCell>
        <mxCell id="zKjUSq3xo2_UQNt89BO3-161" value="" style="rounded=1;whiteSpace=wrap;html=1;strokeColor=default;strokeWidth=0;fillColor=#E6E6E6;" parent="1" vertex="1">
          <mxGeometry x="446.63" y="-727.1764790394839" width="50" height="45" as="geometry" />
        </mxCell>
        <mxCell id="zKjUSq3xo2_UQNt89BO3-162" value="" style="aspect=fixed;html=1;points=[];align=center;image;fontSize=12;image=img/lib/azure2/networking/Network_Interfaces.svg;" parent="1" vertex="1">
          <mxGeometry x="465.55999999999995" y="-710.8264790394838" width="20" height="17.65" as="geometry" />
        </mxCell>
        <mxCell id="zKjUSq3xo2_UQNt89BO3-163" value="" style="aspect=fixed;html=1;points=[];align=center;image;fontSize=12;image=img/lib/azure2/networking/Network_Interfaces.svg;" parent="1" vertex="1">
          <mxGeometry x="391.74" y="-756.8864790394839" width="26.308724832214764" height="23.21744966442953" as="geometry" />
        </mxCell>
        <mxCell id="zKjUSq3xo2_UQNt89BO3-164" value="" style="endArrow=none;html=1;rounded=0;shadow=0;strokeColor=#000000;strokeWidth=1;fillColor=#FF0000;entryX=0;entryY=0.712;entryDx=0;entryDy=0;entryPerimeter=0;" parent="1" source="zKjUSq3xo2_UQNt89BO3-163" target="zKjUSq3xo2_UQNt89BO3-158" edge="1">
          <mxGeometry width="50" height="50" relative="1" as="geometry">
            <mxPoint x="478.04999999999995" y="-852.1764790394839" as="sourcePoint" />
            <mxPoint x="528.05" y="-902.1764790394839" as="targetPoint" />
          </mxGeometry>
        </mxCell>
        <mxCell id="zKjUSq3xo2_UQNt89BO3-165" value="&lt;div&gt;172.28.48.68&lt;/div&gt;" style="text;html=1;align=center;verticalAlign=middle;resizable=0;points=[];autosize=1;strokeColor=none;fillColor=none;fontStyle=1;fontSize=13;" parent="1" vertex="1">
          <mxGeometry x="332" y="-782.1764790394839" width="100" height="30" as="geometry" />
        </mxCell>
        <mxCell id="zKjUSq3xo2_UQNt89BO3-166" value="" style="aspect=fixed;html=1;points=[];align=center;image;fontSize=12;image=img/lib/azure2/networking/Route_Tables.svg;" parent="1" vertex="1">
          <mxGeometry x="392.56" y="-710.8264790394838" width="20" height="19.38" as="geometry" />
        </mxCell>
        <mxCell id="zKjUSq3xo2_UQNt89BO3-167" value="Http/Https" style="edgeLabel;html=1;align=center;verticalAlign=top;resizable=0;points=[];fontStyle=1;horizontal=1;" parent="1" vertex="1" connectable="0">
          <mxGeometry x="568.049083950279" y="-818" as="geometry" />
        </mxCell>
        <mxCell id="zKjUSq3xo2_UQNt89BO3-153" value="Internet" style="whiteSpace=wrap;html=1;aspect=fixed;dashed=1;dashPattern=12 12;strokeColor=default;fillColor=none;" parent="1" vertex="1">
          <mxGeometry x="10" y="-90" width="870" height="870" as="geometry" />
        </mxCell>
        <mxCell id="_NbgPAOYJ38VF1XvK5KL-51" value="" style="whiteSpace=wrap;html=1;aspect=fixed;fontSize=24;fillColor=#f9f7ed;strokeColor=none;" parent="1" vertex="1">
          <mxGeometry x="387" y="-49" width="250" height="250" as="geometry" />
        </mxCell>
        <mxCell id="_NbgPAOYJ38VF1XvK5KL-35" value="" style="rounded=0;whiteSpace=wrap;html=1;strokeColor=none;fillColor=#f9f7ed;" parent="1" vertex="1">
          <mxGeometry x="700" y="200" width="160" height="240" as="geometry" />
        </mxCell>
        <mxCell id="_NbgPAOYJ38VF1XvK5KL-33" value="" style="rounded=0;whiteSpace=wrap;html=1;fillColor=#f9f7ed;strokeColor=none;" parent="1" vertex="1">
          <mxGeometry x="70" y="90" width="240" height="270" as="geometry" />
        </mxCell>
        <mxCell id="_NbgPAOYJ38VF1XvK5KL-31" value="" style="rounded=0;whiteSpace=wrap;html=1;dashed=1;dashPattern=1 2;fillColor=#f9f7ed;strokeColor=none;" parent="1" vertex="1">
          <mxGeometry x="78" y="463" width="240" height="260" as="geometry" />
        </mxCell>
        <mxCell id="dSrJtow9eJ3Rqq7BlYT7-24" value="" style="aspect=fixed;html=1;points=[];align=center;image;fontSize=12;image=img/lib/azure2/networking/Load_Balancers.svg;" parent="1" vertex="1">
          <mxGeometry x="30" y="209" width="42" height="42" as="geometry" />
        </mxCell>
        <mxCell id="dSrJtow9eJ3Rqq7BlYT7-30" value="" style="group;" parent="1" vertex="1" connectable="0">
          <mxGeometry x="140" y="130" width="188.57999999999998" height="213.71000000000004" as="geometry" />
        </mxCell>
        <mxCell id="dSrJtow9eJ3Rqq7BlYT7-40" value="" style="rounded=1;whiteSpace=wrap;html=1;strokeColor=none;fillColor=#E6E6E6;" parent="dSrJtow9eJ3Rqq7BlYT7-30" vertex="1">
          <mxGeometry x="-43" y="-10" width="51.95" height="220" as="geometry" />
        </mxCell>
        <mxCell id="dSrJtow9eJ3Rqq7BlYT7-34" value="" style="rounded=1;whiteSpace=wrap;html=1;strokeColor=none;strokeWidth=0;fillColor=#E6E6E6;" parent="dSrJtow9eJ3Rqq7BlYT7-30" vertex="1">
          <mxGeometry x="93.02013422818791" y="-10" width="46.97986577181208" height="220" as="geometry" />
        </mxCell>
        <mxCell id="dSrJtow9eJ3Rqq7BlYT7-3" value="" style="verticalLabelPosition=bottom;html=1;verticalAlign=top;align=center;strokeColor=none;fillColor=#00BEF2;shape=mxgraph.azure.virtual_machine;" parent="dSrJtow9eJ3Rqq7BlYT7-30" vertex="1">
          <mxGeometry x="30.003892617449665" y="-1.49" width="46.97986577181208" height="40" as="geometry" />
        </mxCell>
        <mxCell id="dSrJtow9eJ3Rqq7BlYT7-29" value="" style="aspect=fixed;html=1;points=[];align=center;image;fontSize=12;image=img/lib/azure2/networking/Network_Interfaces.svg;strokeColor=none;" parent="dSrJtow9eJ3Rqq7BlYT7-30" vertex="1">
          <mxGeometry x="103.35570469798657" y="15.29000000000002" width="26.308724832214764" height="23.21744966442953" as="geometry" />
        </mxCell>
        <mxCell id="dSrJtow9eJ3Rqq7BlYT7-25" value="" style="aspect=fixed;html=1;points=[];align=center;image;fontSize=12;image=img/lib/azure2/networking/Route_Tables.svg;" parent="dSrJtow9eJ3Rqq7BlYT7-30" vertex="1">
          <mxGeometry x="106.50999999999999" y="130" width="20" height="19.38" as="geometry" />
        </mxCell>
        <mxCell id="dSrJtow9eJ3Rqq7BlYT7-58" value="" style="rounded=1;whiteSpace=wrap;html=1;strokeColor=default;strokeWidth=0;fillColor=#E6E6E6;" parent="dSrJtow9eJ3Rqq7BlYT7-30" vertex="1">
          <mxGeometry x="28.580000000000013" y="45" width="50" height="100" as="geometry" />
        </mxCell>
        <mxCell id="dSrJtow9eJ3Rqq7BlYT7-26" value="" style="aspect=fixed;html=1;points=[];align=center;image;fontSize=12;image=img/lib/azure2/networking/Network_Interfaces.svg;" parent="dSrJtow9eJ3Rqq7BlYT7-30" vertex="1">
          <mxGeometry x="-28" y="159" width="28" height="24.71" as="geometry" />
        </mxCell>
        <mxCell id="dSrJtow9eJ3Rqq7BlYT7-31" value="" style="group;rotation=90;" parent="dSrJtow9eJ3Rqq7BlYT7-30" vertex="1" connectable="0">
          <mxGeometry x="-11.490000000000009" y="159" width="138" height="44.089999999999975" as="geometry" />
        </mxCell>
        <mxCell id="dSrJtow9eJ3Rqq7BlYT7-2" value="" style="verticalLabelPosition=bottom;html=1;verticalAlign=top;align=center;strokeColor=none;fillColor=#00BEF2;shape=mxgraph.azure.virtual_machine;" parent="dSrJtow9eJ3Rqq7BlYT7-31" vertex="1">
          <mxGeometry x="40" width="50" height="40" as="geometry" />
        </mxCell>
        <mxCell id="dSrJtow9eJ3Rqq7BlYT7-28" value="" style="aspect=fixed;html=1;points=[];align=center;image;fontSize=12;image=img/lib/azure2/networking/Network_Interfaces.svg;" parent="dSrJtow9eJ3Rqq7BlYT7-31" vertex="1">
          <mxGeometry x="115" y="-0.6200000000000045" width="28" height="24.71" as="geometry" />
        </mxCell>
        <mxCell id="dSrJtow9eJ3Rqq7BlYT7-32" value="" style="aspect=fixed;html=1;points=[];align=center;image;fontSize=12;image=img/lib/azure2/networking/Network_Interfaces.svg;strokeColor=default;" parent="dSrJtow9eJ3Rqq7BlYT7-31" vertex="1">
          <mxGeometry x="59" y="-39" width="20" height="17.64" as="geometry" />
        </mxCell>
        <mxCell id="dSrJtow9eJ3Rqq7BlYT7-33" value="" style="aspect=fixed;html=1;points=[];align=center;image;fontSize=12;image=img/lib/azure2/networking/Network_Interfaces.svg;" parent="dSrJtow9eJ3Rqq7BlYT7-30" vertex="1">
          <mxGeometry x="47.50999999999999" y="61.349999999999994" width="20" height="17.65" as="geometry" />
        </mxCell>
        <mxCell id="dSrJtow9eJ3Rqq7BlYT7-27" value="" style="aspect=fixed;html=1;points=[];align=center;image;fontSize=12;image=img/lib/azure2/networking/Network_Interfaces.svg;" parent="dSrJtow9eJ3Rqq7BlYT7-30" vertex="1">
          <mxGeometry x="-26.310000000000002" y="15.29000000000002" width="26.308724832214764" height="23.21744966442953" as="geometry" />
        </mxCell>
        <mxCell id="dSrJtow9eJ3Rqq7BlYT7-137" value="" style="endArrow=none;html=1;rounded=0;shadow=0;strokeColor=#000000;strokeWidth=1;fillColor=#FF0000;entryX=0;entryY=0.712;entryDx=0;entryDy=0;entryPerimeter=0;" parent="dSrJtow9eJ3Rqq7BlYT7-30" source="dSrJtow9eJ3Rqq7BlYT7-27" target="dSrJtow9eJ3Rqq7BlYT7-3" edge="1">
          <mxGeometry width="50" height="50" relative="1" as="geometry">
            <mxPoint x="60" y="-80" as="sourcePoint" />
            <mxPoint x="110" y="-130" as="targetPoint" />
          </mxGeometry>
        </mxCell>
        <mxCell id="_NbgPAOYJ38VF1XvK5KL-57" value="172.28.32.37" style="text;html=1;align=center;verticalAlign=middle;resizable=0;points=[];autosize=1;strokeColor=none;fillColor=none;fontStyle=1;fontSize=13;" parent="dSrJtow9eJ3Rqq7BlYT7-30" vertex="1">
          <mxGeometry x="81.97999999999999" y="-10" width="100" height="30" as="geometry" />
        </mxCell>
        <mxCell id="_NbgPAOYJ38VF1XvK5KL-58" value="172.28.32.38" style="text;html=1;align=center;verticalAlign=middle;resizable=0;points=[];autosize=1;strokeColor=none;fillColor=none;fontStyle=1;fontSize=13;" parent="dSrJtow9eJ3Rqq7BlYT7-30" vertex="1">
          <mxGeometry x="83.57999999999998" y="183.71000000000004" width="100" height="30" as="geometry" />
        </mxCell>
        <mxCell id="_NbgPAOYJ38VF1XvK5KL-59" value="172.28.32.5" style="text;html=1;align=center;verticalAlign=middle;resizable=0;points=[];autosize=1;strokeColor=none;fillColor=none;fontStyle=1;fontSize=13;" parent="dSrJtow9eJ3Rqq7BlYT7-30" vertex="1">
          <mxGeometry x="-81.05" y="-10" width="90" height="30" as="geometry" />
        </mxCell>
        <mxCell id="_NbgPAOYJ38VF1XvK5KL-60" value="172.28.32.6" style="text;html=1;align=center;verticalAlign=middle;resizable=0;points=[];autosize=1;strokeColor=none;fillColor=none;fontStyle=1;fontSize=13;" parent="dSrJtow9eJ3Rqq7BlYT7-30" vertex="1">
          <mxGeometry x="-81.05" y="180" width="90" height="30" as="geometry" />
        </mxCell>
        <mxCell id="dSrJtow9eJ3Rqq7BlYT7-49" value="" style="aspect=fixed;html=1;points=[];align=center;image;fontSize=12;image=img/lib/azure2/networking/Route_Tables.svg;" parent="1" vertex="1">
          <mxGeometry x="114.50999999999999" y="251" width="20" height="19.38" as="geometry" />
        </mxCell>
        <mxCell id="dSrJtow9eJ3Rqq7BlYT7-50" value="" style="edgeStyle=none;orthogonalLoop=1;jettySize=auto;html=1;rounded=0;strokeColor=#006600;" parent="1" source="dSrJtow9eJ3Rqq7BlYT7-24" target="dSrJtow9eJ3Rqq7BlYT7-27" edge="1">
          <mxGeometry width="80" relative="1" as="geometry">
            <mxPoint x="10" y="140" as="sourcePoint" />
            <mxPoint x="90" y="140" as="targetPoint" />
            <Array as="points" />
          </mxGeometry>
        </mxCell>
        <mxCell id="dSrJtow9eJ3Rqq7BlYT7-51" value="" style="endArrow=classic;html=1;rounded=0;entryX=0.107;entryY=0.514;entryDx=0;entryDy=0;entryPerimeter=0;strokeColor=#006600;" parent="1" source="dSrJtow9eJ3Rqq7BlYT7-24" target="dSrJtow9eJ3Rqq7BlYT7-26" edge="1">
          <mxGeometry width="50" height="50" relative="1" as="geometry">
            <mxPoint x="70" y="451" as="sourcePoint" />
            <mxPoint x="120" y="401" as="targetPoint" />
          </mxGeometry>
        </mxCell>
        <mxCell id="dSrJtow9eJ3Rqq7BlYT7-55" value="" style="aspect=fixed;html=1;points=[];align=center;image;fontSize=12;image=img/lib/azure2/networking/Load_Balancers.svg;" parent="1" vertex="1">
          <mxGeometry x="310" y="209" width="42" height="42" as="geometry" />
        </mxCell>
        <mxCell id="dSrJtow9eJ3Rqq7BlYT7-56" value="" style="edgeStyle=none;orthogonalLoop=1;jettySize=auto;html=1;rounded=0;strokeColor=#FF3333;" parent="1" source="dSrJtow9eJ3Rqq7BlYT7-55" target="dSrJtow9eJ3Rqq7BlYT7-29" edge="1">
          <mxGeometry width="80" relative="1" as="geometry">
            <mxPoint x="290" y="137.98000000000002" as="sourcePoint" />
            <mxPoint x="430" y="175.02871385915077" as="targetPoint" />
            <Array as="points" />
          </mxGeometry>
        </mxCell>
        <mxCell id="dSrJtow9eJ3Rqq7BlYT7-57" value="" style="endArrow=classic;html=1;rounded=0;strokeColor=#FF0000;" parent="1" source="dSrJtow9eJ3Rqq7BlYT7-55" target="dSrJtow9eJ3Rqq7BlYT7-28" edge="1">
          <mxGeometry width="50" height="50" relative="1" as="geometry">
            <mxPoint x="350" y="448.98" as="sourcePoint" />
            <mxPoint x="432.9960000000001" y="316.9709399999999" as="targetPoint" />
          </mxGeometry>
        </mxCell>
        <mxCell id="dSrJtow9eJ3Rqq7BlYT7-59" value="" style="aspect=fixed;html=1;points=[];align=center;image;fontSize=12;image=img/lib/azure2/networking/Load_Balancers.svg;" parent="1" vertex="1">
          <mxGeometry x="370" y="60.36" width="42" height="42" as="geometry" />
        </mxCell>
        <mxCell id="dSrJtow9eJ3Rqq7BlYT7-60" value="" style="group;" parent="1" vertex="1" connectable="0">
          <mxGeometry x="450" y="-20" width="193.01999999999998" height="220" as="geometry" />
        </mxCell>
        <mxCell id="dSrJtow9eJ3Rqq7BlYT7-61" value="" style="rounded=1;whiteSpace=wrap;html=1;strokeColor=none;fillColor=#E6E6E6;" parent="dSrJtow9eJ3Rqq7BlYT7-60" vertex="1">
          <mxGeometry x="-20" y="-10" width="51.95" height="220" as="geometry" />
        </mxCell>
        <mxCell id="dSrJtow9eJ3Rqq7BlYT7-62" value="" style="rounded=1;whiteSpace=wrap;html=1;strokeColor=none;strokeWidth=0;fillColor=#E6E6E6;" parent="dSrJtow9eJ3Rqq7BlYT7-60" vertex="1">
          <mxGeometry x="93.02013422818791" y="-10" width="46.97986577181208" height="220" as="geometry" />
        </mxCell>
        <mxCell id="dSrJtow9eJ3Rqq7BlYT7-63" value="" style="verticalLabelPosition=bottom;html=1;verticalAlign=top;align=center;strokeColor=none;fillColor=#00BEF2;shape=mxgraph.azure.virtual_machine;" parent="dSrJtow9eJ3Rqq7BlYT7-60" vertex="1">
          <mxGeometry x="37.58389261744966" width="46.97986577181208" height="40" as="geometry" />
        </mxCell>
        <mxCell id="dSrJtow9eJ3Rqq7BlYT7-64" value="" style="aspect=fixed;html=1;points=[];align=center;image;fontSize=12;image=img/lib/azure2/networking/Network_Interfaces.svg;" parent="dSrJtow9eJ3Rqq7BlYT7-60" vertex="1">
          <mxGeometry y="15.29000000000002" width="26.308724832214764" height="23.21744966442953" as="geometry" />
        </mxCell>
        <mxCell id="dSrJtow9eJ3Rqq7BlYT7-65" value="" style="aspect=fixed;html=1;points=[];align=center;image;fontSize=12;image=img/lib/azure2/networking/Network_Interfaces.svg;strokeColor=none;" parent="dSrJtow9eJ3Rqq7BlYT7-60" vertex="1">
          <mxGeometry x="103.35570469798657" y="15.29000000000002" width="26.308724832214764" height="23.21744966442953" as="geometry" />
        </mxCell>
        <mxCell id="dSrJtow9eJ3Rqq7BlYT7-66" value="" style="aspect=fixed;html=1;points=[];align=center;image;fontSize=12;image=img/lib/azure2/networking/Route_Tables.svg;" parent="dSrJtow9eJ3Rqq7BlYT7-60" vertex="1">
          <mxGeometry x="106.50999999999999" y="100" width="20" height="19.38" as="geometry" />
        </mxCell>
        <mxCell id="dSrJtow9eJ3Rqq7BlYT7-67" value="" style="rounded=1;whiteSpace=wrap;html=1;strokeColor=default;strokeWidth=0;fillColor=#E6E6E6;" parent="dSrJtow9eJ3Rqq7BlYT7-60" vertex="1">
          <mxGeometry x="37.58000000000001" y="45" width="50" height="100" as="geometry" />
        </mxCell>
        <mxCell id="_NbgPAOYJ38VF1XvK5KL-69" value="172.28.32.69" style="text;html=1;align=center;verticalAlign=middle;resizable=0;points=[];autosize=1;strokeColor=none;fillColor=none;fontStyle=1;fontSize=13;" parent="dSrJtow9eJ3Rqq7BlYT7-60" vertex="1">
          <mxGeometry x="-62.420000000000016" y="-10" width="100" height="30" as="geometry" />
        </mxCell>
        <mxCell id="_NbgPAOYJ38VF1XvK5KL-70" value="172.28.32.70" style="text;html=1;align=center;verticalAlign=middle;resizable=0;points=[];autosize=1;strokeColor=none;fillColor=none;fontStyle=1;fontSize=13;" parent="dSrJtow9eJ3Rqq7BlYT7-60" vertex="1">
          <mxGeometry x="-62.420000000000016" y="190" width="100" height="30" as="geometry" />
        </mxCell>
        <mxCell id="_NbgPAOYJ38VF1XvK5KL-71" value="172.28.32.53" style="text;html=1;align=center;verticalAlign=middle;resizable=0;points=[];autosize=1;strokeColor=none;fillColor=none;fontStyle=1;fontSize=13;" parent="dSrJtow9eJ3Rqq7BlYT7-60" vertex="1">
          <mxGeometry x="87.57999999999993" y="-10" width="100" height="30" as="geometry" />
        </mxCell>
        <mxCell id="_NbgPAOYJ38VF1XvK5KL-72" value="172.28.32.54" style="text;html=1;align=center;verticalAlign=middle;resizable=0;points=[];autosize=1;strokeColor=none;fillColor=none;fontStyle=1;fontSize=13;" parent="dSrJtow9eJ3Rqq7BlYT7-60" vertex="1">
          <mxGeometry x="93.01999999999998" y="190" width="100" height="30" as="geometry" />
        </mxCell>
        <mxCell id="dSrJtow9eJ3Rqq7BlYT7-68" value="" style="group;rotation=90;" parent="1" vertex="1" connectable="0">
          <mxGeometry x="450" y="130" width="138" height="44.089999999999975" as="geometry" />
        </mxCell>
        <mxCell id="dSrJtow9eJ3Rqq7BlYT7-69" value="" style="verticalLabelPosition=bottom;html=1;verticalAlign=top;align=center;strokeColor=none;fillColor=#00BEF2;shape=mxgraph.azure.virtual_machine;" parent="dSrJtow9eJ3Rqq7BlYT7-68" vertex="1">
          <mxGeometry x="40" width="50" height="40" as="geometry" />
        </mxCell>
        <mxCell id="dSrJtow9eJ3Rqq7BlYT7-70" value="" style="aspect=fixed;html=1;points=[];align=center;image;fontSize=12;image=img/lib/azure2/networking/Network_Interfaces.svg;" parent="dSrJtow9eJ3Rqq7BlYT7-68" vertex="1">
          <mxGeometry y="15.29000000000002" width="28" height="24.71" as="geometry" />
        </mxCell>
        <mxCell id="dSrJtow9eJ3Rqq7BlYT7-71" value="" style="aspect=fixed;html=1;points=[];align=center;image;fontSize=12;image=img/lib/azure2/networking/Network_Interfaces.svg;" parent="dSrJtow9eJ3Rqq7BlYT7-68" vertex="1">
          <mxGeometry x="104" y="19.379999999999995" width="28" height="24.71" as="geometry" />
        </mxCell>
        <mxCell id="dSrJtow9eJ3Rqq7BlYT7-72" value="" style="aspect=fixed;html=1;points=[];align=center;image;fontSize=12;image=img/lib/azure2/networking/Network_Interfaces.svg;strokeColor=default;" parent="1" vertex="1">
          <mxGeometry x="505" y="106.36" width="15" height="13.23" as="geometry" />
        </mxCell>
        <mxCell id="dSrJtow9eJ3Rqq7BlYT7-73" value="" style="aspect=fixed;html=1;points=[];align=center;image;fontSize=12;image=img/lib/azure2/networking/Network_Interfaces.svg;" parent="1" vertex="1">
          <mxGeometry x="505" y="30.35" width="15" height="13.24" as="geometry" />
        </mxCell>
        <mxCell id="dSrJtow9eJ3Rqq7BlYT7-75" value="" style="edgeStyle=none;orthogonalLoop=1;jettySize=auto;html=1;rounded=0;strokeColor=#006600;" parent="1" source="dSrJtow9eJ3Rqq7BlYT7-59" target="dSrJtow9eJ3Rqq7BlYT7-64" edge="1">
          <mxGeometry width="80" relative="1" as="geometry">
            <mxPoint x="310" y="-21" as="sourcePoint" />
            <mxPoint x="390" y="-21" as="targetPoint" />
            <Array as="points" />
          </mxGeometry>
        </mxCell>
        <mxCell id="dSrJtow9eJ3Rqq7BlYT7-76" value="" style="endArrow=classic;html=1;rounded=0;entryX=0.107;entryY=0.514;entryDx=0;entryDy=0;entryPerimeter=0;strokeColor=#006600;" parent="1" source="dSrJtow9eJ3Rqq7BlYT7-59" target="dSrJtow9eJ3Rqq7BlYT7-70" edge="1">
          <mxGeometry width="50" height="50" relative="1" as="geometry">
            <mxPoint x="370" y="290" as="sourcePoint" />
            <mxPoint x="420" y="240" as="targetPoint" />
          </mxGeometry>
        </mxCell>
        <mxCell id="dSrJtow9eJ3Rqq7BlYT7-101" value="" style="aspect=fixed;html=1;points=[];align=center;image;fontSize=12;image=img/lib/azure2/networking/Load_Balancers.svg;" parent="1" vertex="1">
          <mxGeometry x="652" y="310" width="42" height="42" as="geometry" />
        </mxCell>
        <mxCell id="dSrJtow9eJ3Rqq7BlYT7-102" value="" style="group;" parent="1" vertex="1" connectable="0">
          <mxGeometry x="745" y="220" width="135" height="220" as="geometry" />
        </mxCell>
        <mxCell id="dSrJtow9eJ3Rqq7BlYT7-103" value="" style="rounded=1;whiteSpace=wrap;html=1;strokeColor=none;fillColor=#E6E6E6;" parent="dSrJtow9eJ3Rqq7BlYT7-102" vertex="1">
          <mxGeometry x="-19.285714285714285" y="-10" width="50.09464285714286" height="220" as="geometry" />
        </mxCell>
        <mxCell id="dSrJtow9eJ3Rqq7BlYT7-105" value="" style="verticalLabelPosition=bottom;html=1;verticalAlign=top;align=center;strokeColor=none;fillColor=#00BEF2;shape=mxgraph.azure.virtual_machine;" parent="dSrJtow9eJ3Rqq7BlYT7-102" vertex="1">
          <mxGeometry x="48.77732502396932" width="45.30201342281879" height="40" as="geometry" />
        </mxCell>
        <mxCell id="dSrJtow9eJ3Rqq7BlYT7-106" value="" style="aspect=fixed;html=1;points=[];align=center;image;fontSize=12;image=img/lib/azure2/networking/Network_Interfaces.svg;" parent="dSrJtow9eJ3Rqq7BlYT7-102" vertex="1">
          <mxGeometry y="15.29000000000002" width="25.369127516778523" height="22.388255033557048" as="geometry" />
        </mxCell>
        <mxCell id="dSrJtow9eJ3Rqq7BlYT7-116" value="" style="aspect=fixed;html=1;points=[];align=center;image;fontSize=12;image=img/lib/azure2/networking/Route_Tables.svg;" parent="dSrJtow9eJ3Rqq7BlYT7-102" vertex="1">
          <mxGeometry x="0.14464285714283523" y="52.620000000000005" width="19.285714285714285" height="18.68785714285714" as="geometry" />
        </mxCell>
        <mxCell id="_NbgPAOYJ38VF1XvK5KL-55" value="172.28.32.149" style="text;html=1;align=center;verticalAlign=middle;resizable=0;points=[];autosize=1;strokeColor=none;fillColor=none;fontStyle=1;fontSize=13;" parent="dSrJtow9eJ3Rqq7BlYT7-102" vertex="1">
          <mxGeometry x="-49.24000000000001" y="-20" width="110" height="30" as="geometry" />
        </mxCell>
        <mxCell id="_NbgPAOYJ38VF1XvK5KL-56" value="172.28.32.148" style="text;html=1;align=center;verticalAlign=middle;resizable=0;points=[];autosize=1;strokeColor=none;fillColor=none;fontStyle=1;fontSize=13;" parent="dSrJtow9eJ3Rqq7BlYT7-102" vertex="1">
          <mxGeometry x="-49.24000000000001" y="190" width="110" height="30" as="geometry" />
        </mxCell>
        <mxCell id="dSrJtow9eJ3Rqq7BlYT7-110" value="" style="group;rotation=90;" parent="1" vertex="1" connectable="0">
          <mxGeometry x="738" y="370" width="138" height="44.089999999999975" as="geometry" />
        </mxCell>
        <mxCell id="dSrJtow9eJ3Rqq7BlYT7-111" value="" style="verticalLabelPosition=bottom;html=1;verticalAlign=top;align=center;strokeColor=none;fillColor=#00BEF2;shape=mxgraph.azure.virtual_machine;" parent="dSrJtow9eJ3Rqq7BlYT7-110" vertex="1">
          <mxGeometry x="54" width="50" height="40" as="geometry" />
        </mxCell>
        <mxCell id="dSrJtow9eJ3Rqq7BlYT7-112" value="" style="aspect=fixed;html=1;points=[];align=center;image;fontSize=12;image=img/lib/azure2/networking/Network_Interfaces.svg;" parent="dSrJtow9eJ3Rqq7BlYT7-110" vertex="1">
          <mxGeometry y="15.29000000000002" width="28" height="24.71" as="geometry" />
        </mxCell>
        <mxCell id="dSrJtow9eJ3Rqq7BlYT7-117" value="" style="edgeStyle=none;orthogonalLoop=1;jettySize=auto;html=1;rounded=0;strokeColor=#006600;" parent="1" source="dSrJtow9eJ3Rqq7BlYT7-101" target="dSrJtow9eJ3Rqq7BlYT7-106" edge="1">
          <mxGeometry width="80" relative="1" as="geometry">
            <mxPoint x="600" y="219" as="sourcePoint" />
            <mxPoint x="680" y="219" as="targetPoint" />
            <Array as="points" />
          </mxGeometry>
        </mxCell>
        <mxCell id="dSrJtow9eJ3Rqq7BlYT7-118" value="" style="endArrow=classic;html=1;rounded=0;entryX=0.107;entryY=0.514;entryDx=0;entryDy=0;entryPerimeter=0;strokeColor=#006600;" parent="1" source="dSrJtow9eJ3Rqq7BlYT7-101" target="dSrJtow9eJ3Rqq7BlYT7-112" edge="1">
          <mxGeometry width="50" height="50" relative="1" as="geometry">
            <mxPoint x="660" y="530" as="sourcePoint" />
            <mxPoint x="710" y="480" as="targetPoint" />
          </mxGeometry>
        </mxCell>
        <mxCell id="dSrJtow9eJ3Rqq7BlYT7-122" value="" style="endArrow=classic;html=1;rounded=0;strokeColor=#006600;fillColor=#006600;entryX=-0.095;entryY=0.5;entryDx=0;entryDy=0;entryPerimeter=0;strokeWidth=2;" parent="1" source="dSrJtow9eJ3Rqq7BlYT7-25" target="dSrJtow9eJ3Rqq7BlYT7-101" edge="1">
          <mxGeometry width="50" height="50" relative="1" as="geometry">
            <mxPoint x="276.51" y="249.19" as="sourcePoint" />
            <mxPoint x="586.51" y="249.19" as="targetPoint" />
            <Array as="points">
              <mxPoint x="370" y="331" />
            </Array>
          </mxGeometry>
        </mxCell>
        <mxCell id="dSrJtow9eJ3Rqq7BlYT7-123" value="Non Http/Https" style="edgeLabel;html=1;align=center;verticalAlign=top;resizable=0;points=[];fontStyle=1;horizontal=1;" parent="dSrJtow9eJ3Rqq7BlYT7-122" vertex="1" connectable="0">
          <mxGeometry x="-0.2448" relative="1" as="geometry">
            <mxPoint x="26" y="137" as="offset" />
          </mxGeometry>
        </mxCell>
        <mxCell id="dSrJtow9eJ3Rqq7BlYT7-124" value="" style="endArrow=classic;html=1;rounded=0;strokeColor=#FF0000;fillColor=#FF0000;entryX=1;entryY=0.524;entryDx=0;entryDy=0;entryPerimeter=0;strokeWidth=2;" parent="1" source="dSrJtow9eJ3Rqq7BlYT7-116" target="dSrJtow9eJ3Rqq7BlYT7-55" edge="1">
          <mxGeometry width="50" height="50" relative="1" as="geometry">
            <mxPoint x="480" y="470" as="sourcePoint" />
            <mxPoint x="851.5000000000002" y="551.81" as="targetPoint" />
            <Array as="points">
              <mxPoint x="520" y="282" />
            </Array>
          </mxGeometry>
        </mxCell>
        <mxCell id="dSrJtow9eJ3Rqq7BlYT7-125" value="Non Http/Https" style="edgeLabel;html=1;align=center;verticalAlign=top;resizable=0;points=[];fontStyle=1;horizontal=1;" parent="dSrJtow9eJ3Rqq7BlYT7-124" vertex="1" connectable="0">
          <mxGeometry x="-0.2448" relative="1" as="geometry">
            <mxPoint x="-73" y="249" as="offset" />
          </mxGeometry>
        </mxCell>
        <mxCell id="SgD9rf9TxSrO230GItMg-9" value="Internet" style="edgeLabel;html=1;align=center;verticalAlign=middle;resizable=0;points=[];" vertex="1" connectable="0" parent="dSrJtow9eJ3Rqq7BlYT7-124">
          <mxGeometry x="0.2337" relative="1" as="geometry">
            <mxPoint as="offset" />
          </mxGeometry>
        </mxCell>
        <mxCell id="dSrJtow9eJ3Rqq7BlYT7-126" value="" style="endArrow=block;html=1;rounded=0;strokeColor=#006600;fillColor=#006600;strokeWidth=2;shadow=0;" parent="1" target="dSrJtow9eJ3Rqq7BlYT7-59" edge="1">
          <mxGeometry width="50" height="50" relative="1" as="geometry">
            <mxPoint x="260" y="120" as="sourcePoint" />
            <mxPoint x="340" y="70" as="targetPoint" />
            <Array as="points">
              <mxPoint x="260" y="80" />
            </Array>
          </mxGeometry>
        </mxCell>
        <mxCell id="dSrJtow9eJ3Rqq7BlYT7-127" value="Http/Https" style="edgeLabel;html=1;align=center;verticalAlign=top;resizable=0;points=[];fontStyle=1;horizontal=1;" parent="dSrJtow9eJ3Rqq7BlYT7-126" vertex="1" connectable="0">
          <mxGeometry x="-0.2448" relative="1" as="geometry">
            <mxPoint x="13" as="offset" />
          </mxGeometry>
        </mxCell>
        <mxCell id="dSrJtow9eJ3Rqq7BlYT7-130" value="" style="endArrow=classic;html=1;rounded=0;strokeColor=#FF0000;fillColor=#FF0000;exitX=0.4;exitY=0.722;exitDx=0;exitDy=0;exitPerimeter=0;strokeWidth=2;" parent="1" source="dSrJtow9eJ3Rqq7BlYT7-145" target="dSrJtow9eJ3Rqq7BlYT7-55" edge="1">
          <mxGeometry width="50" height="50" relative="1" as="geometry">
            <mxPoint x="434.98425" y="169.99999999999997" as="sourcePoint" />
            <mxPoint x="347.02" y="182.99200000000016" as="targetPoint" />
            <Array as="points">
              <mxPoint x="330" y="120" />
            </Array>
          </mxGeometry>
        </mxCell>
        <mxCell id="dSrJtow9eJ3Rqq7BlYT7-131" value="Http/Https" style="edgeLabel;html=1;align=center;verticalAlign=top;resizable=0;points=[];fontStyle=1;horizontal=1;" parent="dSrJtow9eJ3Rqq7BlYT7-130" vertex="1" connectable="0">
          <mxGeometry x="-0.2448" relative="1" as="geometry">
            <mxPoint x="-14" y="1" as="offset" />
          </mxGeometry>
        </mxCell>
        <mxCell id="dSrJtow9eJ3Rqq7BlYT7-134" value="" style="endArrow=classic;html=1;rounded=0;strokeColor=#006600;fillColor=#006600;strokeWidth=2;" parent="1" source="dSrJtow9eJ3Rqq7BlYT7-66" target="dSrJtow9eJ3Rqq7BlYT7-101" edge="1">
          <mxGeometry width="50" height="50" relative="1" as="geometry">
            <mxPoint x="740" y="80" as="sourcePoint" />
            <mxPoint x="1111.5000000000002" y="161.80999999999995" as="targetPoint" />
            <Array as="points">
              <mxPoint x="673" y="90" />
            </Array>
          </mxGeometry>
        </mxCell>
        <mxCell id="dSrJtow9eJ3Rqq7BlYT7-135" value="Http/Https" style="edgeLabel;html=1;align=center;verticalAlign=top;resizable=0;points=[];fontStyle=1;horizontal=1;" parent="dSrJtow9eJ3Rqq7BlYT7-134" vertex="1" connectable="0">
          <mxGeometry x="-0.2448" relative="1" as="geometry">
            <mxPoint x="14" y="11" as="offset" />
          </mxGeometry>
        </mxCell>
        <mxCell id="dSrJtow9eJ3Rqq7BlYT7-139" value="Internet" style="ellipse;shape=cloud;whiteSpace=wrap;html=1;align=center;fillColor=#3399FF;fontColor=#FFFAFB;fontStyle=1;fontSize=24;" parent="1" vertex="1">
          <mxGeometry x="-310" y="-190" width="279" height="160" as="geometry" />
        </mxCell>
        <mxCell id="dSrJtow9eJ3Rqq7BlYT7-144" value="" style="curved=1;endArrow=classic;html=1;rounded=0;entryX=0.095;entryY=0.333;entryDx=0;entryDy=0;entryPerimeter=0;strokeWidth=3;strokeColor=#009900;endFill=1;startArrow=none;startFill=0;" parent="1" source="dSrJtow9eJ3Rqq7BlYT7-139" target="dSrJtow9eJ3Rqq7BlYT7-24" edge="1">
          <mxGeometry width="50" height="50" relative="1" as="geometry">
            <mxPoint x="-84" y="180" as="sourcePoint" />
            <mxPoint x="-34" y="130" as="targetPoint" />
            <Array as="points">
              <mxPoint x="-20" y="223" />
              <mxPoint x="-60" />
            </Array>
          </mxGeometry>
        </mxCell>
        <mxCell id="dSrJtow9eJ3Rqq7BlYT7-145" value="" style="aspect=fixed;html=1;points=[];align=center;image;fontSize=12;image=img/lib/azure2/networking/Route_Tables.svg;" parent="1" vertex="1">
          <mxGeometry x="447" y="104" width="20" height="19.38" as="geometry" />
        </mxCell>
        <mxCell id="dSrJtow9eJ3Rqq7BlYT7-147" value="" style="endArrow=classic;html=1;rounded=0;strokeColor=#FF0000;fillColor=#FF0000;entryX=0.915;entryY=0.368;entryDx=0;entryDy=0;entryPerimeter=0;strokeWidth=2;exitX=0.485;exitY=-0.032;exitDx=0;exitDy=0;exitPerimeter=0;" parent="1" source="dSrJtow9eJ3Rqq7BlYT7-103" target="dSrJtow9eJ3Rqq7BlYT7-62" edge="1">
          <mxGeometry width="50" height="50" relative="1" as="geometry">
            <mxPoint x="810" as="sourcePoint" />
            <mxPoint x="416.85535714285743" y="-50.95741004566662" as="targetPoint" />
            <Array as="points">
              <mxPoint x="750" y="50" />
            </Array>
          </mxGeometry>
        </mxCell>
        <mxCell id="dSrJtow9eJ3Rqq7BlYT7-148" value="Http/Https" style="edgeLabel;html=1;align=center;verticalAlign=top;resizable=0;points=[];fontStyle=1;horizontal=1;" parent="dSrJtow9eJ3Rqq7BlYT7-147" vertex="1" connectable="0">
          <mxGeometry x="-0.2448" relative="1" as="geometry">
            <mxPoint x="-6" y="-24" as="offset" />
          </mxGeometry>
        </mxCell>
        <mxCell id="_NbgPAOYJ38VF1XvK5KL-1" value="" style="aspect=fixed;html=1;points=[];align=center;image;fontSize=12;image=img/lib/azure2/compute/Virtual_Machine.svg;" parent="1" vertex="1">
          <mxGeometry x="568" y="693" width="69" height="64" as="geometry" />
        </mxCell>
        <mxCell id="_NbgPAOYJ38VF1XvK5KL-4" value="172.28.32.150" style="text;html=1;align=center;verticalAlign=middle;resizable=0;points=[];autosize=1;strokeColor=none;fillColor=none;fontStyle=1;fontSize=15;" parent="1" vertex="1">
          <mxGeometry x="542" y="340" width="120" height="30" as="geometry" />
        </mxCell>
        <mxCell id="_NbgPAOYJ38VF1XvK5KL-5" value="172.28.32.36" style="text;html=1;align=center;verticalAlign=middle;resizable=0;points=[];autosize=1;strokeColor=none;fillColor=none;fontStyle=1;fontSize=15;" parent="1" vertex="1">
          <mxGeometry x="335" y="205" width="110" height="30" as="geometry" />
        </mxCell>
        <mxCell id="_NbgPAOYJ38VF1XvK5KL-6" value="" style="aspect=fixed;html=1;points=[];align=center;image;fontSize=12;image=img/lib/azure2/networking/Load_Balancers.svg;" parent="1" vertex="1">
          <mxGeometry x="36" y="571.0035209605162" width="42" height="42" as="geometry" />
        </mxCell>
        <mxCell id="_NbgPAOYJ38VF1XvK5KL-7" value="" style="group;" parent="1" vertex="1" connectable="0">
          <mxGeometry x="146" y="492.00352096051614" width="178.58" height="220.99647903948386" as="geometry" />
        </mxCell>
        <mxCell id="_NbgPAOYJ38VF1XvK5KL-8" value="" style="rounded=1;whiteSpace=wrap;html=1;strokeColor=none;fillColor=#E6E6E6;" parent="_NbgPAOYJ38VF1XvK5KL-7" vertex="1">
          <mxGeometry x="-43" y="-10" width="51.95" height="220" as="geometry" />
        </mxCell>
        <mxCell id="_NbgPAOYJ38VF1XvK5KL-9" value="" style="rounded=1;whiteSpace=wrap;html=1;strokeColor=none;strokeWidth=0;fillColor=#E6E6E6;" parent="_NbgPAOYJ38VF1XvK5KL-7" vertex="1">
          <mxGeometry x="93.02013422818791" y="-10" width="46.97986577181208" height="220" as="geometry" />
        </mxCell>
        <mxCell id="_NbgPAOYJ38VF1XvK5KL-12" value="" style="aspect=fixed;html=1;points=[];align=center;image;fontSize=12;image=img/lib/azure2/networking/Route_Tables.svg;" parent="_NbgPAOYJ38VF1XvK5KL-7" vertex="1">
          <mxGeometry x="106.50999999999999" y="48" width="20" height="19.38" as="geometry" />
        </mxCell>
        <mxCell id="_NbgPAOYJ38VF1XvK5KL-13" value="" style="rounded=1;whiteSpace=wrap;html=1;strokeColor=default;strokeWidth=0;fillColor=#E6E6E6;" parent="_NbgPAOYJ38VF1XvK5KL-7" vertex="1">
          <mxGeometry x="28.580000000000013" y="45" width="50" height="100" as="geometry" />
        </mxCell>
        <mxCell id="_NbgPAOYJ38VF1XvK5KL-14" value="" style="aspect=fixed;html=1;points=[];align=center;image;fontSize=12;image=img/lib/azure2/networking/Network_Interfaces.svg;" parent="_NbgPAOYJ38VF1XvK5KL-7" vertex="1">
          <mxGeometry x="-28" y="159" width="28" height="24.71" as="geometry" />
        </mxCell>
        <mxCell id="_NbgPAOYJ38VF1XvK5KL-15" value="" style="group;rotation=90;" parent="_NbgPAOYJ38VF1XvK5KL-7" vertex="1" connectable="0">
          <mxGeometry x="-11.490000000000009" y="159" width="138" height="44.089999999999975" as="geometry" />
        </mxCell>
        <mxCell id="_NbgPAOYJ38VF1XvK5KL-16" value="" style="verticalLabelPosition=bottom;html=1;verticalAlign=top;align=center;strokeColor=none;fillColor=#00BEF2;shape=mxgraph.azure.virtual_machine;" parent="_NbgPAOYJ38VF1XvK5KL-15" vertex="1">
          <mxGeometry x="40" width="50" height="40" as="geometry" />
        </mxCell>
        <mxCell id="_NbgPAOYJ38VF1XvK5KL-17" value="" style="aspect=fixed;html=1;points=[];align=center;image;fontSize=12;image=img/lib/azure2/networking/Network_Interfaces.svg;" parent="_NbgPAOYJ38VF1XvK5KL-15" vertex="1">
          <mxGeometry x="115" y="-0.6200000000000045" width="28" height="24.71" as="geometry" />
        </mxCell>
        <mxCell id="_NbgPAOYJ38VF1XvK5KL-18" value="" style="aspect=fixed;html=1;points=[];align=center;image;fontSize=12;image=img/lib/azure2/networking/Network_Interfaces.svg;strokeColor=default;" parent="_NbgPAOYJ38VF1XvK5KL-15" vertex="1">
          <mxGeometry x="59" y="-39" width="20" height="17.64" as="geometry" />
        </mxCell>
        <mxCell id="ZrtazizJmSrfFoZekFq1-2" value="" style="aspect=fixed;html=1;points=[];align=center;image;fontSize=12;image=img/lib/azure2/networking/Network_Interfaces.svg;" parent="_NbgPAOYJ38VF1XvK5KL-15" vertex="1">
          <mxGeometry x="-16.50999999999999" width="28" height="24.71" as="geometry" />
        </mxCell>
        <mxCell id="ZrtazizJmSrfFoZekFq1-3" value="" style="group;rotation=90;" parent="_NbgPAOYJ38VF1XvK5KL-15" vertex="1" connectable="0">
          <mxGeometry width="138" height="44.089999999999975" as="geometry" />
        </mxCell>
        <mxCell id="ZrtazizJmSrfFoZekFq1-4" value="" style="verticalLabelPosition=bottom;html=1;verticalAlign=top;align=center;strokeColor=none;fillColor=#00BEF2;shape=mxgraph.azure.virtual_machine;" parent="ZrtazizJmSrfFoZekFq1-3" vertex="1">
          <mxGeometry x="40" width="50" height="40" as="geometry" />
        </mxCell>
        <mxCell id="ZrtazizJmSrfFoZekFq1-5" value="" style="aspect=fixed;html=1;points=[];align=center;image;fontSize=12;image=img/lib/azure2/networking/Network_Interfaces.svg;" parent="ZrtazizJmSrfFoZekFq1-3" vertex="1">
          <mxGeometry x="115" y="-0.6200000000000045" width="28" height="24.71" as="geometry" />
        </mxCell>
        <mxCell id="ZrtazizJmSrfFoZekFq1-6" value="" style="aspect=fixed;html=1;points=[];align=center;image;fontSize=12;image=img/lib/azure2/networking/Network_Interfaces.svg;strokeColor=default;" parent="ZrtazizJmSrfFoZekFq1-3" vertex="1">
          <mxGeometry x="59" y="-39" width="20" height="17.64" as="geometry" />
        </mxCell>
        <mxCell id="ZrtazizJmSrfFoZekFq1-7" value="" style="aspect=fixed;html=1;points=[];align=center;image;fontSize=12;image=img/lib/azure2/networking/Network_Interfaces.svg;" parent="ZrtazizJmSrfFoZekFq1-3" vertex="1">
          <mxGeometry x="-16.50999999999999" width="28" height="24.71" as="geometry" />
        </mxCell>
        <mxCell id="_NbgPAOYJ38VF1XvK5KL-19" value="" style="aspect=fixed;html=1;points=[];align=center;image;fontSize=12;image=img/lib/azure2/networking/Network_Interfaces.svg;" parent="_NbgPAOYJ38VF1XvK5KL-7" vertex="1">
          <mxGeometry x="47.50999999999999" y="61.349999999999994" width="20" height="17.65" as="geometry" />
        </mxCell>
        <mxCell id="_NbgPAOYJ38VF1XvK5KL-20" value="" style="aspect=fixed;html=1;points=[];align=center;image;fontSize=12;image=img/lib/azure2/networking/Network_Interfaces.svg;" parent="_NbgPAOYJ38VF1XvK5KL-7" vertex="1">
          <mxGeometry x="-26.310000000000002" y="15.29000000000002" width="26.308724832214764" height="23.21744966442953" as="geometry" />
        </mxCell>
        <mxCell id="_NbgPAOYJ38VF1XvK5KL-21" value="" style="endArrow=none;html=1;rounded=0;shadow=0;strokeColor=#000000;strokeWidth=1;fillColor=#FF0000;entryX=0;entryY=0.712;entryDx=0;entryDy=0;entryPerimeter=0;" parent="_NbgPAOYJ38VF1XvK5KL-7" source="_NbgPAOYJ38VF1XvK5KL-20" target="_NbgPAOYJ38VF1XvK5KL-10" edge="1">
          <mxGeometry width="50" height="50" relative="1" as="geometry">
            <mxPoint x="60" y="-80" as="sourcePoint" />
            <mxPoint x="110" y="-130" as="targetPoint" />
          </mxGeometry>
        </mxCell>
        <mxCell id="_NbgPAOYJ38VF1XvK5KL-62" value="172.28.34.38" style="text;html=1;align=center;verticalAlign=middle;resizable=0;points=[];autosize=1;strokeColor=none;fillColor=none;fontStyle=1;fontSize=13;" parent="_NbgPAOYJ38VF1XvK5KL-7" vertex="1">
          <mxGeometry x="78.58000000000001" y="179.99647903948386" width="100" height="30" as="geometry" />
        </mxCell>
        <mxCell id="_NbgPAOYJ38VF1XvK5KL-64" value="172.28.34.5" style="text;html=1;align=center;verticalAlign=middle;resizable=0;points=[];autosize=1;strokeColor=none;fillColor=none;fontStyle=1;fontSize=13;" parent="_NbgPAOYJ38VF1XvK5KL-7" vertex="1">
          <mxGeometry x="-81.05000000000001" y="184.99647903948386" width="90" height="30" as="geometry" />
        </mxCell>
        <mxCell id="_NbgPAOYJ38VF1XvK5KL-63" value="172.28.34.4" style="text;html=1;align=center;verticalAlign=middle;resizable=0;points=[];autosize=1;strokeColor=none;fillColor=none;fontStyle=1;fontSize=13;" parent="_NbgPAOYJ38VF1XvK5KL-7" vertex="1">
          <mxGeometry x="-83" y="-10.003520960516141" width="90" height="30" as="geometry" />
        </mxCell>
        <mxCell id="ZrtazizJmSrfFoZekFq1-1" value="" style="group" parent="_NbgPAOYJ38VF1XvK5KL-7" vertex="1" connectable="0">
          <mxGeometry x="30.003892617449665" y="-1.49" width="99.66053691275168" height="40" as="geometry" />
        </mxCell>
        <mxCell id="_NbgPAOYJ38VF1XvK5KL-10" value="" style="verticalLabelPosition=bottom;html=1;verticalAlign=top;align=center;strokeColor=none;fillColor=#00BEF2;shape=mxgraph.azure.virtual_machine;" parent="ZrtazizJmSrfFoZekFq1-1" vertex="1">
          <mxGeometry width="46.97986577181208" height="40" as="geometry" />
        </mxCell>
        <mxCell id="_NbgPAOYJ38VF1XvK5KL-11" value="" style="aspect=fixed;html=1;points=[];align=center;image;fontSize=12;image=img/lib/azure2/networking/Network_Interfaces.svg;strokeColor=none;" parent="ZrtazizJmSrfFoZekFq1-1" vertex="1">
          <mxGeometry x="73.3518120805369" y="16.78000000000002" width="26.308724832214764" height="23.21744966442953" as="geometry" />
        </mxCell>
        <mxCell id="ZrtazizJmSrfFoZekFq1-16" value="" style="group" parent="_NbgPAOYJ38VF1XvK5KL-7" vertex="1" connectable="0">
          <mxGeometry x="-28" y="158.38" width="206.58" height="51.61647903948386" as="geometry" />
        </mxCell>
        <mxCell id="ZrtazizJmSrfFoZekFq1-8" value="" style="aspect=fixed;html=1;points=[];align=center;image;fontSize=12;image=img/lib/azure2/networking/Network_Interfaces.svg;" parent="ZrtazizJmSrfFoZekFq1-16" vertex="1">
          <mxGeometry y="0.6200000000000045" width="28" height="24.71" as="geometry" />
        </mxCell>
        <mxCell id="ZrtazizJmSrfFoZekFq1-9" value="" style="verticalLabelPosition=bottom;html=1;verticalAlign=top;align=center;strokeColor=none;fillColor=#00BEF2;shape=mxgraph.azure.virtual_machine;" parent="ZrtazizJmSrfFoZekFq1-16" vertex="1">
          <mxGeometry x="56.50999999999999" y="0.6200000000000045" width="50" height="40" as="geometry" />
        </mxCell>
        <mxCell id="ZrtazizJmSrfFoZekFq1-10" value="" style="aspect=fixed;html=1;points=[];align=center;image;fontSize=12;image=img/lib/azure2/networking/Network_Interfaces.svg;" parent="ZrtazizJmSrfFoZekFq1-16" vertex="1">
          <mxGeometry x="131.51" width="28" height="24.71" as="geometry" />
        </mxCell>
        <mxCell id="ZrtazizJmSrfFoZekFq1-11" value="" style="aspect=fixed;html=1;points=[];align=center;image;fontSize=12;image=img/lib/azure2/networking/Network_Interfaces.svg;" parent="ZrtazizJmSrfFoZekFq1-16" vertex="1">
          <mxGeometry y="0.6200000000000045" width="28" height="24.71" as="geometry" />
        </mxCell>
        <mxCell id="ZrtazizJmSrfFoZekFq1-12" value="" style="verticalLabelPosition=bottom;html=1;verticalAlign=top;align=center;strokeColor=none;fillColor=#00BEF2;shape=mxgraph.azure.virtual_machine;" parent="ZrtazizJmSrfFoZekFq1-16" vertex="1">
          <mxGeometry x="56.50999999999999" y="0.6200000000000045" width="50" height="40" as="geometry" />
        </mxCell>
        <mxCell id="ZrtazizJmSrfFoZekFq1-13" value="" style="aspect=fixed;html=1;points=[];align=center;image;fontSize=12;image=img/lib/azure2/networking/Network_Interfaces.svg;" parent="ZrtazizJmSrfFoZekFq1-16" vertex="1">
          <mxGeometry x="131.51" width="28" height="24.71" as="geometry" />
        </mxCell>
        <mxCell id="ZrtazizJmSrfFoZekFq1-14" value="" style="aspect=fixed;html=1;points=[];align=center;image;fontSize=12;image=img/lib/azure2/networking/Network_Interfaces.svg;" parent="ZrtazizJmSrfFoZekFq1-16" vertex="1">
          <mxGeometry y="0.6200000000000045" width="28" height="24.71" as="geometry" />
        </mxCell>
        <mxCell id="ZrtazizJmSrfFoZekFq1-15" value="172.28.34.38" style="text;html=1;align=center;verticalAlign=middle;resizable=0;points=[];autosize=1;strokeColor=none;fillColor=none;fontStyle=1;fontSize=13;" parent="ZrtazizJmSrfFoZekFq1-16" vertex="1">
          <mxGeometry x="106.58000000000001" y="21.616479039483863" width="100" height="30" as="geometry" />
        </mxCell>
        <mxCell id="_NbgPAOYJ38VF1XvK5KL-22" value="" style="aspect=fixed;html=1;points=[];align=center;image;fontSize=12;image=img/lib/azure2/networking/Route_Tables.svg;" parent="1" vertex="1">
          <mxGeometry x="120.50999999999999" y="613.0035209605162" width="20" height="19.38" as="geometry" />
        </mxCell>
        <mxCell id="_NbgPAOYJ38VF1XvK5KL-23" value="" style="edgeStyle=none;orthogonalLoop=1;jettySize=auto;html=1;rounded=0;strokeColor=#006600;" parent="1" source="_NbgPAOYJ38VF1XvK5KL-6" target="_NbgPAOYJ38VF1XvK5KL-20" edge="1">
          <mxGeometry width="80" relative="1" as="geometry">
            <mxPoint x="16" y="502.00352096051614" as="sourcePoint" />
            <mxPoint x="96" y="502.00352096051614" as="targetPoint" />
            <Array as="points" />
          </mxGeometry>
        </mxCell>
        <mxCell id="_NbgPAOYJ38VF1XvK5KL-24" value="" style="endArrow=classic;html=1;rounded=0;entryX=0.107;entryY=0.514;entryDx=0;entryDy=0;entryPerimeter=0;strokeColor=#006600;" parent="1" source="_NbgPAOYJ38VF1XvK5KL-6" target="_NbgPAOYJ38VF1XvK5KL-14" edge="1">
          <mxGeometry width="50" height="50" relative="1" as="geometry">
            <mxPoint x="76" y="813.0035209605162" as="sourcePoint" />
            <mxPoint x="126" y="763.0035209605162" as="targetPoint" />
          </mxGeometry>
        </mxCell>
        <mxCell id="_NbgPAOYJ38VF1XvK5KL-25" value="" style="aspect=fixed;html=1;points=[];align=center;image;fontSize=12;image=img/lib/azure2/networking/Load_Balancers.svg;" parent="1" vertex="1">
          <mxGeometry x="316" y="571.0035209605162" width="42" height="42" as="geometry" />
        </mxCell>
        <mxCell id="_NbgPAOYJ38VF1XvK5KL-26" value="" style="edgeStyle=none;orthogonalLoop=1;jettySize=auto;html=1;rounded=0;strokeColor=#FF3333;" parent="1" source="_NbgPAOYJ38VF1XvK5KL-25" target="_NbgPAOYJ38VF1XvK5KL-11" edge="1">
          <mxGeometry width="80" relative="1" as="geometry">
            <mxPoint x="296" y="499.98352096051616" as="sourcePoint" />
            <mxPoint x="436" y="537.0322348196669" as="targetPoint" />
            <Array as="points" />
          </mxGeometry>
        </mxCell>
        <mxCell id="_NbgPAOYJ38VF1XvK5KL-27" value="" style="endArrow=classic;html=1;rounded=0;strokeColor=#FF0000;" parent="1" source="_NbgPAOYJ38VF1XvK5KL-25" target="_NbgPAOYJ38VF1XvK5KL-17" edge="1">
          <mxGeometry width="50" height="50" relative="1" as="geometry">
            <mxPoint x="356" y="810.9835209605162" as="sourcePoint" />
            <mxPoint x="438.9960000000001" y="678.9744609605161" as="targetPoint" />
          </mxGeometry>
        </mxCell>
        <mxCell id="_NbgPAOYJ38VF1XvK5KL-29" value="" style="endArrow=classic;html=1;rounded=0;strokeColor=#009900;exitX=0.56;exitY=0.265;exitDx=0;exitDy=0;exitPerimeter=0;strokeWidth=2;" parent="1" source="_NbgPAOYJ38VF1XvK5KL-12" target="dSrJtow9eJ3Rqq7BlYT7-101" edge="1">
          <mxGeometry width="50" height="50" relative="1" as="geometry">
            <mxPoint x="-90" y="400" as="sourcePoint" />
            <mxPoint x="20" y="240" as="targetPoint" />
          </mxGeometry>
        </mxCell>
        <mxCell id="_NbgPAOYJ38VF1XvK5KL-30" value="" style="endArrow=classic;html=1;rounded=0;entryX=1;entryY=0.405;entryDx=0;entryDy=0;entryPerimeter=0;strokeColor=#FF0000;strokeWidth=2;" parent="1" target="_NbgPAOYJ38VF1XvK5KL-25" edge="1">
          <mxGeometry width="50" height="50" relative="1" as="geometry">
            <mxPoint x="750" y="290" as="sourcePoint" />
            <mxPoint x="130" y="340" as="targetPoint" />
            <Array as="points">
              <mxPoint x="590" y="500" />
            </Array>
          </mxGeometry>
        </mxCell>
        <mxCell id="_NbgPAOYJ38VF1XvK5KL-32" value="VPN Firewall" style="text;html=1;align=center;verticalAlign=middle;resizable=0;points=[];autosize=1;strokeColor=none;fillColor=none;fontSize=20;fontStyle=1" parent="1" vertex="1">
          <mxGeometry x="121" y="717" width="140" height="40" as="geometry" />
        </mxCell>
        <mxCell id="_NbgPAOYJ38VF1XvK5KL-34" value="Perimeter Fortigate FW" style="text;html=1;align=center;verticalAlign=middle;resizable=0;points=[];autosize=1;strokeColor=none;fillColor=none;fontSize=20;fontStyle=1" parent="1" vertex="1">
          <mxGeometry x="71" y="367" width="240" height="40" as="geometry" />
        </mxCell>
        <mxCell id="_NbgPAOYJ38VF1XvK5KL-36" value="SonicWall FW" style="text;html=1;align=center;verticalAlign=middle;resizable=0;points=[];autosize=1;strokeColor=none;fillColor=none;fontStyle=1;fontSize=21;" parent="1" vertex="1">
          <mxGeometry x="700" y="448" width="160" height="40" as="geometry" />
        </mxCell>
        <mxCell id="_NbgPAOYJ38VF1XvK5KL-42" value="" style="endArrow=classic;html=1;rounded=0;strokeColor=#CC0000;entryX=0.429;entryY=0.952;entryDx=0;entryDy=0;entryPerimeter=0;strokeWidth=2;exitX=0.826;exitY=0.016;exitDx=0;exitDy=0;exitPerimeter=0;" parent="1" source="_NbgPAOYJ38VF1XvK5KL-1" target="dSrJtow9eJ3Rqq7BlYT7-101" edge="1">
          <mxGeometry width="50" height="50" relative="1" as="geometry">
            <mxPoint x="640" y="550" as="sourcePoint" />
            <mxPoint x="400" y="580" as="targetPoint" />
            <Array as="points" />
          </mxGeometry>
        </mxCell>
        <mxCell id="_NbgPAOYJ38VF1XvK5KL-43" value="" style="endArrow=classic;html=1;rounded=0;strokeColor=#009900;strokeWidth=2;exitX=0;exitY=1;exitDx=0;exitDy=0;entryX=0.971;entryY=0.156;entryDx=0;entryDy=0;entryPerimeter=0;" parent="1" source="dSrJtow9eJ3Rqq7BlYT7-103" target="_NbgPAOYJ38VF1XvK5KL-1" edge="1">
          <mxGeometry width="50" height="50" relative="1" as="geometry">
            <mxPoint x="730" y="700" as="sourcePoint" />
            <mxPoint x="660" y="580" as="targetPoint" />
          </mxGeometry>
        </mxCell>
        <mxCell id="_NbgPAOYJ38VF1XvK5KL-47" value="" style="fontColor=#0066CC;verticalAlign=top;verticalLabelPosition=bottom;labelPosition=center;align=center;html=1;outlineConnect=0;fillColor=#CCCCCC;strokeColor=#6881B3;gradientColor=none;gradientDirection=north;strokeWidth=2;shape=mxgraph.networks.business_center;fontSize=24;" parent="1" vertex="1">
          <mxGeometry x="-355" y="223" width="180" height="190" as="geometry" />
        </mxCell>
        <mxCell id="_NbgPAOYJ38VF1XvK5KL-48" value="" style="fontColor=#0066CC;verticalAlign=top;verticalLabelPosition=bottom;labelPosition=center;align=center;html=1;outlineConnect=0;fillColor=#99FF99;strokeColor=#6881B3;gradientColor=none;gradientDirection=north;strokeWidth=2;shape=mxgraph.networks.comm_link;fontSize=24;rotation=-50;" parent="1" vertex="1">
          <mxGeometry x="-93" y="377" width="48" height="260" as="geometry" />
        </mxCell>
        <mxCell id="_NbgPAOYJ38VF1XvK5KL-50" value="" style="curved=1;endArrow=none;html=1;rounded=0;entryX=0.095;entryY=0.333;entryDx=0;entryDy=0;entryPerimeter=0;strokeWidth=3;strokeColor=#FF0000;endFill=0;startArrow=classic;startFill=1;" parent="1" edge="1">
          <mxGeometry width="50" height="50" relative="1" as="geometry">
            <mxPoint x="-59.59526798485831" y="-63.54473752830518" as="sourcePoint" />
            <mxPoint x="109.98999999999978" y="191.98599999999988" as="targetPoint" />
            <Array as="points">
              <mxPoint x="56" y="192" />
              <mxPoint x="16" y="-31" />
            </Array>
          </mxGeometry>
        </mxCell>
        <mxCell id="_NbgPAOYJ38VF1XvK5KL-52" value="&lt;font color=&quot;#000000&quot; style=&quot;font-size: 20px;&quot;&gt;&lt;span style=&quot;font-size: 20px;&quot;&gt;WAF&lt;/span&gt;&lt;/font&gt;" style="text;html=1;align=center;verticalAlign=middle;resizable=0;points=[];autosize=1;strokeColor=none;fillColor=none;fontSize=20;fontColor=#FFFAFB;fontStyle=1" parent="1" vertex="1">
          <mxGeometry x="469" y="-96" width="70" height="40" as="geometry" />
        </mxCell>
        <mxCell id="_NbgPAOYJ38VF1XvK5KL-53" value="S2S VPN" style="text;html=1;align=center;verticalAlign=middle;resizable=0;points=[];autosize=1;strokeColor=none;fillColor=none;fontSize=20;fontColor=#000000;" parent="1" vertex="1">
          <mxGeometry x="-175" y="533" width="110" height="40" as="geometry" />
        </mxCell>
        <mxCell id="_NbgPAOYJ38VF1XvK5KL-61" value="172.28.34.37" style="text;html=1;align=center;verticalAlign=middle;resizable=0;points=[];autosize=1;strokeColor=none;fillColor=none;fontStyle=1;fontSize=13;" parent="1" vertex="1">
          <mxGeometry x="218" y="473" width="100" height="30" as="geometry" />
        </mxCell>
        <mxCell id="_NbgPAOYJ38VF1XvK5KL-65" value="172.28.32.4" style="text;html=1;align=center;verticalAlign=middle;resizable=0;points=[];autosize=1;strokeColor=none;fillColor=none;fontStyle=1;fontSize=13;" parent="1" vertex="1">
          <mxGeometry x="-58" y="216.86" width="90" height="30" as="geometry" />
        </mxCell>
        <mxCell id="_NbgPAOYJ38VF1XvK5KL-66" value="172.28.34.36" style="text;html=1;align=center;verticalAlign=middle;resizable=0;points=[];autosize=1;strokeColor=none;fillColor=none;fontStyle=1;fontSize=15;" parent="1" vertex="1">
          <mxGeometry x="334" y="589" width="110" height="30" as="geometry" />
        </mxCell>
        <mxCell id="zKjUSq3xo2_UQNt89BO3-78" value="" style="rounded=0;whiteSpace=wrap;html=1;fillColor=#f9f7ed;strokeColor=none;" parent="1" vertex="1">
          <mxGeometry x="1.05" y="-710" width="240" height="120" as="geometry" />
        </mxCell>
        <mxCell id="zKjUSq3xo2_UQNt89BO3-79" value="" style="group;" parent="1" vertex="1" connectable="0">
          <mxGeometry x="71.05000000000001" y="-694" width="188.57999999999998" height="218.71000000000004" as="geometry" />
        </mxCell>
        <mxCell id="zKjUSq3xo2_UQNt89BO3-80" value="" style="rounded=1;whiteSpace=wrap;html=1;strokeColor=none;fillColor=#E6E6E6;" parent="zKjUSq3xo2_UQNt89BO3-79" vertex="1">
          <mxGeometry x="-43" y="-10" width="51.95" height="110" as="geometry" />
        </mxCell>
        <mxCell id="zKjUSq3xo2_UQNt89BO3-81" value="" style="rounded=1;whiteSpace=wrap;html=1;strokeColor=none;strokeWidth=0;fillColor=#E6E6E6;" parent="zKjUSq3xo2_UQNt89BO3-79" vertex="1">
          <mxGeometry x="93.02" y="-10" width="46.98" height="110" as="geometry" />
        </mxCell>
        <mxCell id="zKjUSq3xo2_UQNt89BO3-82" value="" style="verticalLabelPosition=bottom;html=1;verticalAlign=top;align=center;strokeColor=none;fillColor=#00BEF2;shape=mxgraph.azure.virtual_machine;" parent="zKjUSq3xo2_UQNt89BO3-79" vertex="1">
          <mxGeometry x="30.003892617449665" y="-1.49" width="46.97986577181208" height="40" as="geometry" />
        </mxCell>
        <mxCell id="zKjUSq3xo2_UQNt89BO3-83" value="" style="aspect=fixed;html=1;points=[];align=center;image;fontSize=12;image=img/lib/azure2/networking/Network_Interfaces.svg;strokeColor=none;" parent="zKjUSq3xo2_UQNt89BO3-79" vertex="1">
          <mxGeometry x="103.35570469798657" y="15.29000000000002" width="26.308724832214764" height="23.21744966442953" as="geometry" />
        </mxCell>
        <mxCell id="zKjUSq3xo2_UQNt89BO3-84" value="" style="aspect=fixed;html=1;points=[];align=center;image;fontSize=12;image=img/lib/azure2/networking/Route_Tables.svg;" parent="zKjUSq3xo2_UQNt89BO3-79" vertex="1">
          <mxGeometry x="103.35999999999999" y="59.620000000000005" width="20" height="19.38" as="geometry" />
        </mxCell>
        <mxCell id="zKjUSq3xo2_UQNt89BO3-85" value="" style="rounded=1;whiteSpace=wrap;html=1;strokeColor=default;strokeWidth=0;fillColor=#E6E6E6;" parent="zKjUSq3xo2_UQNt89BO3-79" vertex="1">
          <mxGeometry x="28.58" y="45" width="50" height="45" as="geometry" />
        </mxCell>
        <mxCell id="zKjUSq3xo2_UQNt89BO3-91" value="" style="aspect=fixed;html=1;points=[];align=center;image;fontSize=12;image=img/lib/azure2/networking/Network_Interfaces.svg;" parent="zKjUSq3xo2_UQNt89BO3-79" vertex="1">
          <mxGeometry x="47.50999999999999" y="61.349999999999994" width="20" height="17.65" as="geometry" />
        </mxCell>
        <mxCell id="zKjUSq3xo2_UQNt89BO3-92" value="" style="aspect=fixed;html=1;points=[];align=center;image;fontSize=12;image=img/lib/azure2/networking/Network_Interfaces.svg;" parent="zKjUSq3xo2_UQNt89BO3-79" vertex="1">
          <mxGeometry x="-26.310000000000002" y="15.29000000000002" width="26.308724832214764" height="23.21744966442953" as="geometry" />
        </mxCell>
        <mxCell id="zKjUSq3xo2_UQNt89BO3-93" value="" style="endArrow=none;html=1;rounded=0;shadow=0;strokeColor=#000000;strokeWidth=1;fillColor=#FF0000;entryX=0;entryY=0.712;entryDx=0;entryDy=0;entryPerimeter=0;" parent="zKjUSq3xo2_UQNt89BO3-79" source="zKjUSq3xo2_UQNt89BO3-92" target="zKjUSq3xo2_UQNt89BO3-82" edge="1">
          <mxGeometry width="50" height="50" relative="1" as="geometry">
            <mxPoint x="60" y="-80" as="sourcePoint" />
            <mxPoint x="110" y="-130" as="targetPoint" />
          </mxGeometry>
        </mxCell>
        <mxCell id="zKjUSq3xo2_UQNt89BO3-94" value="172.28.48.52" style="text;html=1;align=center;verticalAlign=middle;resizable=0;points=[];autosize=1;strokeColor=none;fillColor=none;fontStyle=1;fontSize=13;" parent="zKjUSq3xo2_UQNt89BO3-79" vertex="1">
          <mxGeometry x="123.35999999999999" y="49" width="100" height="30" as="geometry" />
        </mxCell>
        <mxCell id="zKjUSq3xo2_UQNt89BO3-98" value="" style="aspect=fixed;html=1;points=[];align=center;image;fontSize=12;image=img/lib/azure2/networking/Route_Tables.svg;" parent="zKjUSq3xo2_UQNt89BO3-79" vertex="1">
          <mxGeometry x="-25.49000000000001" y="61.35000000000002" width="20" height="19.38" as="geometry" />
        </mxCell>
        <mxCell id="zKjUSq3xo2_UQNt89BO3-137" value="" style="endArrow=classic;html=1;rounded=0;strokeColor=#006600;fillColor=#006600;entryX=-0.095;entryY=0.5;entryDx=0;entryDy=0;entryPerimeter=0;strokeWidth=2;" parent="1" source="zKjUSq3xo2_UQNt89BO3-84" edge="1">
          <mxGeometry width="50" height="50" relative="1" as="geometry">
            <mxPoint x="207.56" y="-570.81" as="sourcePoint" />
            <mxPoint x="579.0600000000004" y="-489" as="targetPoint" />
            <Array as="points" />
          </mxGeometry>
        </mxCell>
        <mxCell id="zKjUSq3xo2_UQNt89BO3-138" value="Non Http/Https" style="edgeLabel;html=1;align=center;verticalAlign=top;resizable=0;points=[];fontStyle=1;horizontal=1;" parent="zKjUSq3xo2_UQNt89BO3-137" vertex="1" connectable="0">
          <mxGeometry x="-0.2448" relative="1" as="geometry">
            <mxPoint x="9" y="-21" as="offset" />
          </mxGeometry>
        </mxCell>
        <mxCell id="zKjUSq3xo2_UQNt89BO3-139" value="" style="endArrow=classic;html=1;rounded=0;strokeColor=#FF0000;fillColor=#FF0000;strokeWidth=2;" parent="1" target="zKjUSq3xo2_UQNt89BO3-81" edge="1">
          <mxGeometry width="50" height="50" relative="1" as="geometry">
            <mxPoint x="590" y="-500" as="sourcePoint" />
            <mxPoint x="283.0500000000002" y="-588.992" as="targetPoint" />
            <Array as="points">
              <mxPoint x="550" y="-510" />
            </Array>
          </mxGeometry>
        </mxCell>
        <mxCell id="zKjUSq3xo2_UQNt89BO3-140" value="Non Http/Https" style="edgeLabel;html=1;align=center;verticalAlign=top;resizable=0;points=[];fontStyle=1;horizontal=1;" parent="zKjUSq3xo2_UQNt89BO3-139" vertex="1" connectable="0">
          <mxGeometry x="-0.2448" relative="1" as="geometry">
            <mxPoint x="-6" y="-24" as="offset" />
          </mxGeometry>
        </mxCell>
        <mxCell id="zKjUSq3xo2_UQNt89BO3-141" value="" style="endArrow=block;html=1;rounded=0;strokeColor=#006600;fillColor=#006600;strokeWidth=2;shadow=0;entryX=0.095;entryY=0.383;entryDx=0;entryDy=0;entryPerimeter=0;" parent="1" target="zKjUSq3xo2_UQNt89BO3-156" edge="1">
          <mxGeometry width="50" height="50" relative="1" as="geometry">
            <mxPoint x="191.05" y="-700" as="sourcePoint" />
            <mxPoint x="301.0500000000002" y="-738.8580152671755" as="targetPoint" />
            <Array as="points">
              <mxPoint x="191.05" y="-740" />
            </Array>
          </mxGeometry>
        </mxCell>
        <mxCell id="zKjUSq3xo2_UQNt89BO3-142" value="Http/Https" style="edgeLabel;html=1;align=center;verticalAlign=top;resizable=0;points=[];fontStyle=1;horizontal=1;" parent="zKjUSq3xo2_UQNt89BO3-141" vertex="1" connectable="0">
          <mxGeometry x="-0.2448" relative="1" as="geometry">
            <mxPoint x="13" as="offset" />
          </mxGeometry>
        </mxCell>
        <mxCell id="zKjUSq3xo2_UQNt89BO3-143" value="" style="endArrow=classic;html=1;rounded=0;strokeColor=#FF0000;fillColor=#FF0000;exitX=0.4;exitY=0.722;exitDx=0;exitDy=0;exitPerimeter=0;strokeWidth=2;entryX=1;entryY=0.5;entryDx=0;entryDy=0;" parent="1" target="zKjUSq3xo2_UQNt89BO3-81" edge="1">
          <mxGeometry width="50" height="50" relative="1" as="geometry">
            <mxPoint x="386.0500000000002" y="-702.00764" as="sourcePoint" />
            <mxPoint x="261.85909090909126" y="-611" as="targetPoint" />
            <Array as="points">
              <mxPoint x="261.05" y="-700" />
            </Array>
          </mxGeometry>
        </mxCell>
        <mxCell id="zKjUSq3xo2_UQNt89BO3-144" value="Http/Https" style="edgeLabel;html=1;align=center;verticalAlign=top;resizable=0;points=[];fontStyle=1;horizontal=1;" parent="zKjUSq3xo2_UQNt89BO3-143" vertex="1" connectable="0">
          <mxGeometry x="-0.2448" relative="1" as="geometry">
            <mxPoint x="-14" y="1" as="offset" />
          </mxGeometry>
        </mxCell>
        <mxCell id="zKjUSq3xo2_UQNt89BO3-145" value="" style="endArrow=classic;html=1;rounded=0;strokeColor=#006600;fillColor=#006600;strokeWidth=2;" parent="1" edge="1">
          <mxGeometry width="50" height="50" relative="1" as="geometry">
            <mxPoint x="550" y="-730" as="sourcePoint" />
            <mxPoint x="604.0500000000002" y="-510" as="targetPoint" />
            <Array as="points">
              <mxPoint x="604.05" y="-730" />
            </Array>
          </mxGeometry>
        </mxCell>
        <mxCell id="zKjUSq3xo2_UQNt89BO3-146" value="Http/Https" style="edgeLabel;html=1;align=center;verticalAlign=top;resizable=0;points=[];fontStyle=1;horizontal=1;" parent="zKjUSq3xo2_UQNt89BO3-145" vertex="1" connectable="0">
          <mxGeometry x="-0.2448" relative="1" as="geometry">
            <mxPoint x="48" y="13" as="offset" />
          </mxGeometry>
        </mxCell>
        <mxCell id="zKjUSq3xo2_UQNt89BO3-148" value="" style="endArrow=classic;html=1;rounded=0;strokeColor=#FF0000;fillColor=#FF0000;strokeWidth=2;exitX=0.25;exitY=0;exitDx=0;exitDy=0;" parent="1" source="zKjUSq3xo2_UQNt89BO3-168" edge="1">
          <mxGeometry width="50" height="50" relative="1" as="geometry">
            <mxPoint x="681.0601874999998" y="-617.04" as="sourcePoint" />
            <mxPoint x="560" y="-769" as="targetPoint" />
            <Array as="points">
              <mxPoint x="620" y="-770" />
            </Array>
          </mxGeometry>
        </mxCell>
        <mxCell id="zKjUSq3xo2_UQNt89BO3-152" value="Perimeter Fortigate FW" style="text;html=1;align=center;verticalAlign=middle;resizable=0;points=[];autosize=1;strokeColor=none;fillColor=none;fontSize=20;fontStyle=1" parent="1" vertex="1">
          <mxGeometry x="-57.999999999999986" y="-569" width="240" height="40" as="geometry" />
        </mxCell>
        <mxCell id="zKjUSq3xo2_UQNt89BO3-182" value="Spokes&lt;br&gt;" style="aspect=fixed;html=1;points=[];align=center;image;fontSize=12;image=img/lib/azure2/compute/Virtual_Machine.svg;" parent="1" vertex="1">
          <mxGeometry x="876" y="-350" width="69" height="64" as="geometry" />
        </mxCell>
        <mxCell id="zKjUSq3xo2_UQNt89BO3-183" value="" style="endArrow=block;html=1;rounded=0;strokeColor=#006600;fillColor=#006600;strokeWidth=2;shadow=0;" parent="1" source="zKjUSq3xo2_UQNt89BO3-173" edge="1">
          <mxGeometry width="50" height="50" relative="1" as="geometry">
            <mxPoint x="900" y="-420" as="sourcePoint" />
            <mxPoint x="900" y="-360" as="targetPoint" />
            <Array as="points">
              <mxPoint x="900" y="-435" />
            </Array>
          </mxGeometry>
        </mxCell>
        <mxCell id="zKjUSq3xo2_UQNt89BO3-185" value="" style="endArrow=none;html=1;rounded=0;strokeColor=#FF0000;fillColor=#FF0000;strokeWidth=2;exitX=1;exitY=0.25;exitDx=0;exitDy=0;endFill=0;startArrow=classic;startFill=1;" parent="1" source="zKjUSq3xo2_UQNt89BO3-170" edge="1">
          <mxGeometry width="50" height="50" relative="1" as="geometry">
            <mxPoint x="770" y="-459" as="sourcePoint" />
            <mxPoint x="940" y="-360" as="targetPoint" />
            <Array as="points">
              <mxPoint x="940" y="-490" />
            </Array>
          </mxGeometry>
        </mxCell>
        <mxCell id="zKjUSq3xo2_UQNt89BO3-187" value="" style="endArrow=classic;html=1;rounded=0;entryX=0.75;entryY=1;entryDx=0;entryDy=0;strokeColor=#FF0000;strokeWidth=2;" parent="1" target="zKjUSq3xo2_UQNt89BO3-170" edge="1">
          <mxGeometry width="50" height="50" relative="1" as="geometry">
            <mxPoint x="760" y="210" as="sourcePoint" />
            <mxPoint x="410" y="-130" as="targetPoint" />
          </mxGeometry>
        </mxCell>
        <mxCell id="zKjUSq3xo2_UQNt89BO3-188" value="" style="endArrow=classic;html=1;rounded=0;strokeColor=#2db823;strokeWidth=2;" parent="1" source="zKjUSq3xo2_UQNt89BO3-170" edge="1">
          <mxGeometry width="50" height="50" relative="1" as="geometry">
            <mxPoint x="360" y="-80" as="sourcePoint" />
            <mxPoint x="680" y="290" as="targetPoint" />
          </mxGeometry>
        </mxCell>
        <mxCell id="zKjUSq3xo2_UQNt89BO3-192" value="" style="fontColor=#0066CC;verticalAlign=top;verticalLabelPosition=bottom;labelPosition=center;align=center;html=1;outlineConnect=0;fillColor=#99FF99;strokeColor=#6881B3;gradientColor=none;gradientDirection=north;strokeWidth=2;shape=mxgraph.networks.comm_link;fontSize=24;rotation=-116;" parent="1" vertex="1">
          <mxGeometry x="-117.99731976205591" y="-679.0025441058945" width="48" height="260" as="geometry" />
        </mxCell>
        <mxCell id="zKjUSq3xo2_UQNt89BO3-193" value="" style="fontColor=#0066CC;verticalAlign=top;verticalLabelPosition=bottom;labelPosition=center;align=center;html=1;outlineConnect=0;fillColor=#CCCCCC;strokeColor=#6881B3;gradientColor=none;gradientDirection=north;strokeWidth=2;shape=mxgraph.networks.business_center;fontSize=24;" parent="1" vertex="1">
          <mxGeometry x="-390" y="-550" width="180" height="190" as="geometry" />
        </mxCell>
        <mxCell id="zKjUSq3xo2_UQNt89BO3-96" value="&lt;div&gt;172.28.48.4&lt;/div&gt;" style="text;html=1;align=center;verticalAlign=middle;resizable=0;points=[];autosize=1;strokeColor=none;fillColor=none;fontStyle=1;fontSize=13;" parent="1" vertex="1">
          <mxGeometry x="-49.999999999999986" y="-678.71" width="90" height="30" as="geometry" />
        </mxCell>
        <mxCell id="SgD9rf9TxSrO230GItMg-6" value="&lt;div&gt;172.28.48.37&lt;/div&gt;" style="text;html=1;align=center;verticalAlign=middle;resizable=0;points=[];autosize=1;strokeColor=none;fillColor=none;fontStyle=1;fontSize=13;" vertex="1" parent="1">
          <mxGeometry x="776" y="-430.18" width="100" height="30" as="geometry" />
        </mxCell>
      </root>
    </mxGraphModel>
  </diagram>
</mxfile>
